Coordinates
version=1
nRows=13
nColumns=36
inDegrees=yes

Units are S.I. units (second, meters, Newtons, ...)
If the header above contains a line with 'inDegrees', this indicates whether rotational values are in degrees (yes) or radians (no).

endheader
time	pelvis_tilt	pelvis_list	pelvis_rotation	pelvis_tx	pelvis_ty	pelvis_tz	hip_flexion_r	hip_adduction_r	hip_rotation_r	knee_angle_r	knee_angle_r_beta	ankle_angle_r	subtalar_angle_r	mtp_angle_r	hip_flexion_l	hip_adduction_l	hip_rotation_l	knee_angle_l	knee_angle_l_beta	ankle_angle_l	subtalar_angle_l	mtp_angle_l	lumbar_extension	lumbar_bending	lumbar_rotation	arm_flex_r	arm_add_r	arm_rot_r	elbow_flex_r	pro_sup_r	arm_flex_l	arm_add_l	arm_rot_l	elbow_flex_l	pro_sup_l
      1.27000000	     -3.39881096	      1.77196165	     -2.46621686	     -0.44340378	      1.06354346	     -0.57000842	     27.78443210	     -7.26887380	     -2.90585196	     11.17366400	      0.19501723	    -40.08746961	     -3.14799788	     -7.12334604	     27.68427843	     -4.64437196	     -8.59685038	      8.56825658	      0.14954429	    -37.17148677	     -1.41021892	     -7.12334604	    -15.32066341	      1.70522699	     -0.48714630	     64.38144926	    -53.62646195	     42.43294512	     87.09838261	     99.31064253	     49.71940671	    -66.81064318	     27.06380506	     68.14128591	    110.80773629
      1.28000000	     -3.04427028	      1.77463826	     -2.63973319	     -0.43122611	      1.03917551	     -0.57003919	     28.59305492	     -7.35989307	     -2.00794433	     13.38517982	      0.23361546	    -40.93825824	     -2.97690956	     -7.14346269	     28.31310301	     -4.81986309	     -8.39750546	     10.61448777	      0.18525776	    -37.29846597	     -1.66293124	     -7.14346269	    -15.56787254	      1.67887191	     -0.18663964	     64.95455810	    -57.13695735	     42.52687307	     90.53697851	     98.67414008	     47.84817795	    -71.07066568	     27.65589958	     70.76818397	    109.94876720
      1.29000000	     -2.64318481	      1.68046743	     -2.83218221	     -0.41892280	      1.01379653	     -0.57001663	     29.41436630	     -7.18835484	     -0.63956426	     15.55454176	      0.27147797	    -42.97630738	     -3.10793721	     -7.54576786	     29.07558286	     -5.05671761	     -7.77309619	     13.12116133	      0.22900747	    -38.12119889	     -2.28782870	     -7.54576786	    -16.53413264	      2.16215369	     -7.24828173	     73.47528694	    -50.38834152	     50.33498844	     87.47188760	     97.37957649	    -17.12164354	    -78.20497431	    -36.17893937	     80.40760466	    108.78923259
      1.30000000	     -2.35157723	      1.45631409	     -3.04306497	     -0.40692202	      0.98755752	     -0.56961414	     30.52751750	     -6.71530162	      0.65839168	     18.74309082	      0.32712865	    -42.70104643	     -4.59426208	     -7.49872653	     30.19690777	     -5.40964006	     -7.00582749	     16.22936052	      0.28325578	    -38.60365701	     -3.32932473	     -7.49872653	    -17.28969246	      2.25621604	    -10.81034866	     76.34980879	    -48.71277760	     52.42243523	     87.58443173	     96.08745453	    -58.81872152	    -72.65022304	    -76.12094015	     85.80417199	    107.65118476
      1.31000000	     -2.32043710	      1.26558685	     -3.25516481	     -0.39582708	      0.96035094	     -0.56905913	     32.60913656	     -6.19111292	      1.58909930	     25.37314635	      0.44284495	    -34.20859016	     -8.24145926	     -7.49909801	     32.03937188	     -5.71551183	     -6.39397950	     21.16247495	      0.36935487	    -34.07597588	     -5.84760081	     -7.49909801	    -17.79807736	      2.11092399	    -13.17501194	     77.59409439	    -48.90834278	     52.93592931	     88.49321144	     95.29587360	    -74.98621342	    -65.07499932	    -90.47814369	     89.48032176	    107.41369637
      1.32000000	     -2.31428788	      1.32590374	     -3.31402020	     -0.38538334	      0.93186839	     -0.56883796	     35.53535424	     -6.02673970	      2.29671801	     35.26727614	      0.61553009	    -17.14282834	    -10.20141663	     -7.49940749	     34.58947295	     -5.72275748	     -6.15638530	     28.80250378	      0.50269852	    -21.53315427	     -9.47945084	     -7.49940749	    -18.22567557	      1.57041897	    -14.97922118	     77.73203084	    -50.36026288	     52.53748579	     89.86340880	     93.70213658	    -83.55854477	    -57.91101521	    -96.87151573	     92.37326358	    104.79751095
      1.33000000	     -2.15188983	      1.31610894	     -3.32057806	     -0.37542009	      0.90312532	     -0.56876136	     38.36914902	     -5.75590455	      3.10612342	     44.79295302	      0.78178451	     -1.07174522	     -9.81189386	     -7.49956304	     37.42654315	     -5.80361839	     -5.93660000	     37.63508320	      0.65685612	     -6.12886553	    -11.77791303	     -7.49956304	    -18.85501539	      1.02655944	    -15.94709159	     76.57871579	    -53.17732112	     51.01310700	     91.88097564	     90.95238670	    -88.85998756	    -51.83214507	    -99.82734536	     94.78210149	    100.66868769
      1.34000000	     -2.49296903	      0.98425169	     -3.40142300	     -0.36678084	      0.87507977	     -0.56844874	     41.19505779	     -5.06600257	      3.60954718	     51.84565779	      0.90487743	      9.42807342	     -9.98987919	     -7.49963046	     40.96087979	     -6.31613832	     -5.42919856	     45.67050329	      0.79710065	      4.92171203	    -13.01435074	     -7.49963046	    -19.14585772	      0.84191646	    -16.36469862	     74.05902551	    -56.48705808	     48.47468558	     93.75998585	     90.13499828	    -91.72938776	    -46.26873446	   -100.65313530	     96.25011622	     99.39645783
      1.35000000	     -4.29411657	      0.53885878	     -3.54881243	     -0.36024613	      0.84755806	     -0.56802103	     45.06635458	     -4.23488730	      3.89393084	     56.85741607	      0.99234911	     16.07179682	    -10.62373569	     -7.49967901	     46.37658955	     -7.11120510	     -4.43116004	     52.83807019	      0.92219830	     10.24362482	    -14.37440897	     -7.49967901	    -18.21311733	      0.87496532	    -15.77396493	     67.80958834	    -60.80600984	     42.44364148	     96.56341203	     90.91748804	    -92.51682967	    -42.03129416	    -99.85464791	     97.16168348	    100.23115603
      1.36000000	     -7.17189764	      0.27903579	     -3.88304566	     -0.35514857	      0.82122894	     -0.56772918	     50.38692052	     -3.36064615	      4.47300922	     61.57816689	      1.07474176	     19.77202524	    -11.34905240	     -7.49973692	     53.26306374	     -7.87736416	     -3.18674694	     59.66913046	      1.04142279	     12.26415716	    -15.45677778	     -7.49973692	    -16.46198608	      0.87813757	    -14.20652938	     55.95020516	    -65.64700881	     31.03728697	     99.98146084	     92.32660977	    -91.70879961	    -39.05905118	    -97.69642272	     97.70800295	    101.61194351
      1.37000000	     -9.37684736	      0.30825619	     -4.29801431	     -0.34956303	      0.79838673	     -0.56751629	     55.62143761	     -2.59973538	      5.44532726	     67.02108376	      1.16973858	     21.62380266	    -11.58815751	     -7.49978440	     59.39716766	     -8.43664447	     -2.19712931	     66.34930178	      1.15801377	     13.65711127	    -15.35653970	     -7.49978440	    -15.63336950	      0.63978773	    -12.14389029	     36.38716477	    -69.14789481	     12.10461327	    103.43226617	     93.55936611	    -89.96825324	    -37.00899623	    -94.50982205	     97.90853576	    102.52315859
      1.38000000	     -9.94563042	      0.47042856	     -4.56642018	     -0.34264343	      0.78041433	     -0.56732814	     59.12612422	     -2.24789255	      6.17708533	     72.63936474	      1.26779608	     22.83201684	    -11.61630108	     -7.49984639	     63.07704788	     -8.73950223	     -1.70295312	     72.10866374	      1.25853360	     14.96619007	    -15.19593279	     -7.49984639	    -16.76706732	      0.27004392	     -9.56085625	      9.72537912	    -69.45654985	    -13.72327823	    106.69486583	     94.86896111	    -87.42661113	    -36.38980229	    -90.47465606	     97.77079118	    102.82825768
      1.39000000	     -9.63168784	      0.58012936	     -4.56916514	     -0.33546504	      0.76574469	     -0.56724397	     61.09457493	     -2.36518799	      6.35904169	     77.47237428	      1.35214801	     24.37453997	    -11.18145624	     -7.49989368	     64.85265803	     -8.86370133	     -1.47746360	     76.49235790	      1.33504350	     16.82224177	    -14.93112804	     -7.49989368	    -18.92134690	      0.08149884	     -7.02469633	    -12.62180535	    -65.53706622	    -34.91960320	    109.15228372	     95.31978196	    -84.02822461	    -36.69216044	    -85.53724901	     96.93180770	    102.90060715
